<svg width="80" height="80" viewBox="0 0 80 80" fill="none" xmlns="http://www.w3.org/2000/svg">
<rect width="80" height="80" rx="16" fill="#0D0D0D"/>
<path d="M28.9461 59.6311C28.0633 59.6311 27.3629 59.3048 26.8447 58.6523C26.3266 57.9998 26.2018 57.2706 26.4705 56.4646L28.0825 49.8438H22.6707C21.7496 49.8438 21.0395 49.5271 20.5405 48.8938C20.0416 48.2605 19.8881 47.5025 20.08 46.6197C20.2335 46.044 20.5405 45.5642 21.0011 45.1804C21.4617 44.7966 22.0182 44.6047 22.6707 44.6047H29.4067L31.5369 36.0264H24.9736C24.0525 36.0264 23.3424 35.7097 22.8434 35.0764C22.3445 34.4431 22.1909 33.6851 22.3829 32.8023C22.5364 32.2266 22.8434 31.7468 23.304 31.363C23.7646 30.9792 24.3211 30.7873 24.9736 30.7873H32.861L34.8761 22.9575C34.9912 22.3817 35.2695 21.9116 35.7109 21.5469C36.1522 21.1823 36.6608 21 37.2365 21C38.0809 21 38.7526 21.3358 39.2516 22.0075C39.7505 22.6792 39.9232 23.3988 39.7697 24.1665L38.1577 30.7873H46.6784L48.6934 22.9575C48.8086 22.3817 49.0868 21.9116 49.5282 21.5469C49.9696 21.1823 50.4782 21 51.0539 21C51.8983 21 52.57 21.3358 53.0689 22.0075C53.5679 22.6792 53.7406 23.3988 53.5871 24.1665L51.975 30.7873H57.3293C58.2504 30.7873 58.9605 31.1135 59.4595 31.766C59.9584 32.4185 60.1119 33.167 59.92 34.0114C59.7665 34.6255 59.4595 35.1148 58.9989 35.4794C58.5383 35.8441 57.9818 36.0264 57.3293 36.0264H50.6509L48.5207 44.6047H55.0264C55.9475 44.6047 56.6576 44.9309 57.1566 45.5834C57.6555 46.2359 57.809 46.9843 57.6171 47.8287C57.4636 48.4428 57.1566 48.9322 56.696 49.2968C56.2354 49.6614 55.6789 49.8438 55.0264 49.8438H47.1965L45.2391 57.6736C45.0472 58.1726 44.7497 58.6235 44.3467 59.0265C43.9437 59.4296 43.416 59.6311 42.7635 59.6311C41.8807 59.6311 41.1802 59.3048 40.6621 58.6523C40.1439 57.9998 40.0192 57.2706 40.2879 56.4646L41.8999 49.8438H33.3792L31.4217 57.6736C31.2298 58.1726 30.9324 58.6235 30.5293 59.0265C30.1263 59.4296 29.5986 59.6311 28.9461 59.6311ZM34.7033 44.6047H43.2241L45.3542 36.0264H36.8335L34.7033 44.6047Z" fill="#1878F1"/>
<rect x="0.5" y="0.5" width="79" height="79" rx="15.5" stroke="white" stroke-opacity="0.15"/>
</svg>
